<svg class="border shadow-md" viewBox="0 0 1081.52 540.76" style="width: 1081.52px; height: 540.76px;" xmlns="http://www.w3.org/2000/svg" preserveAspectRatio="none"><rect class="bg" id="bg" x="0" y="0" width="1081.52" height="540.76" fill="#ffffff"></rect><g transform="rotate(225 540.76 270.38)"><path d="M -270.38 460.76 S -149.00 458.76
            0.00 460.76 125.19 431.76
            270.38 460.76 377.76 409.76
            540.76 460.76 652.14 432.76
            811.14 460.76 936.33 454.76
            1081.52 460.76 1158.90 434.76
            1351.90 460.76 h 110 V 1140.76 H -270.38 Z" fill="#DF6589"></path><path d="M -270.38 105.00 S -268.00 62.50
            0.00 105.00 125.19 62.50
            270.38 105.00 387.76 62.00
            540.76 105.00 665.95 42.00
            811.14 105.00 816.52 62.50
            1081.52 105.00 1206.71 61.00
            1351.90 105.00 h 110 V -600 H -270.38 Z" fill="#3C1053"></path></g></svg>