<svg width="59" height="75" viewBox="0 0 59 75" fill="none" xmlns="http://www.w3.org/2000/svg">
<path d="M6.0828 10.4135C15.4261 -1.00108 32.149 -4.73121 47.6255 7.95664C61.4879 19.3085 63.9 34.6146 42.5324 60.7077C39.2057 64.7696 35.8701 68.8404 32.0055 72.9561C31.3792 73.618 30.6214 74.1416 29.7808 74.4934C28.9402 74.8451 28.0353 75.0172 27.1243 74.9986C26.2133 74.9801 25.3162 74.7712 24.4906 74.3855C23.665 73.9998 22.9292 73.4457 22.3304 72.7589C3.34797 50.8622 -7.51966 27.0288 6.0828 10.4135Z" fill="white"/>
<path d="M40.8409 17.8019C41.2996 17.5822 41.7992 17.4607 42.3075 17.4454C42.8159 17.43 43.3219 17.5211 43.793 17.7127C44.2641 17.9044 44.6899 18.1924 45.0432 18.5583C45.3965 18.9241 45.6693 19.3598 45.8444 19.8374C46.8397 21.9445 46.2658 23.8724 42.2577 25.7374C41.639 26.0244 41.0203 26.3113 40.3388 26.5803C40.2285 26.6235 40.1104 26.6429 39.9921 26.6374C39.8738 26.6318 39.758 26.6014 39.6523 26.5481C39.5465 26.4948 39.4532 26.4198 39.3784 26.328C39.3035 26.2362 39.2489 26.1297 39.218 26.0154C38.2675 22.3839 38.3213 18.9945 40.8409 17.8019Z" fill="#003399"/>
<path d="M31.1484 11.8127C31.5057 11.4498 31.9335 11.164 32.4054 10.9728C32.8773 10.7815 33.3834 10.6889 33.8925 10.7007C34.4015 10.7124 34.9028 10.8283 35.3654 11.0411C35.828 11.254 36.2421 11.5593 36.5822 11.9382C38.2052 13.5253 38.1783 15.5249 35.1834 18.5825C34.7172 19.0577 34.2868 19.533 33.7129 20.0082C33.626 20.084 33.5243 20.1408 33.4143 20.1753C33.3042 20.2097 33.1883 20.221 33.0737 20.2084C32.9591 20.1957 32.8484 20.1595 32.7485 20.1019C32.6486 20.0443 32.5618 19.9666 32.4934 19.8737C30.3594 16.8878 29.2385 13.7495 31.1484 11.8127Z" fill="#003399"/>
<path d="M20.8315 12.7809C21.0731 12.3428 21.4018 11.9588 21.7974 11.6524C22.193 11.3461 22.6471 11.1239 23.1317 10.9996C23.6163 10.8753 24.1213 10.8515 24.6155 10.9296C25.1097 11.0077 25.5826 11.1861 26.0053 11.4539C27.9331 12.5837 28.4263 14.655 26.2922 18.2865C25.9605 18.8514 25.6287 19.4163 25.2342 19.9991C25.1687 20.0923 25.0847 20.171 24.9874 20.2302C24.8901 20.2893 24.7816 20.3277 24.6687 20.3428C24.5559 20.358 24.4411 20.3496 24.3316 20.3183C24.2221 20.2869 24.1203 20.2332 24.0326 20.1605C21.2709 17.8202 19.4776 15.0943 20.8315 12.7809Z" fill="#003399"/>
<path d="M12.3372 18.9232C12.5401 18.49 12.829 18.1027 13.1864 17.7848C13.5438 17.4669 13.9621 17.2251 14.416 17.0741C14.8698 16.9231 15.3497 16.866 15.8263 16.9065C16.3029 16.9469 16.7663 17.0839 17.1882 17.3092C19.125 18.2059 19.7347 19.9992 18.0849 23.6397C17.8248 24.2135 17.5558 24.7784 17.1882 25.3702C17.1358 25.4652 17.0642 25.5482 16.9779 25.614C16.8917 25.6797 16.7926 25.7268 16.6871 25.7521C16.5817 25.7774 16.4721 25.7804 16.3654 25.761C16.2586 25.7416 16.1571 25.7001 16.0674 25.6392C13.2339 23.6755 11.2612 21.2725 12.3372 18.9232Z" fill="#003399"/>
<path d="M42.072 37.1162C42.0956 35.4717 41.6908 33.8494 40.8974 32.4087C40.4793 31.8062 40.0049 31.2448 39.4807 30.732C38.584 29.7098 38.2612 28.1854 37.6246 26.9929C37.1549 26.0552 36.5508 25.1913 35.8312 24.4284C34.0379 22.6351 31.5631 22.2136 29.151 22.2136C23.9055 22.2136 21.6011 23.6842 18.7049 29.9339C18.3785 30.4304 17.9997 30.8904 17.575 31.3058C16.8299 31.9896 16.2353 32.8212 15.8293 33.7475C15.4233 34.6738 15.2147 35.6745 15.2168 36.6859C15.2182 37.5417 15.3668 38.391 15.6562 39.1965C15.7602 39.5082 15.8954 39.8086 16.0597 40.0932C16.5255 40.9851 17.1771 41.7667 17.9706 42.3854C18.7641 43.0041 19.6811 43.4455 20.6596 43.6799L20.8389 43.7337C23.0358 44.5765 25.6092 43.1508 28.5592 43.1508C31.7603 43.1508 34.8359 44.4958 37.1404 43.5185L37.2928 43.4647C38.6995 43.1203 39.9439 42.3001 40.8149 41.1431C41.686 39.986 42.1301 38.5633 42.072 37.1162Z" fill="#003399"/>
</svg>
