<?xml version="1.0" encoding="utf-8"?>
<!-- Generator: Adobe Illustrator 24.2.1, SVG Export Plug-In . SVG Version: 6.00 Build 0)  -->
<svg version="1.1" id="Camada_1" xmlns="http://www.w3.org/2000/svg" xmlns:xlink="http://www.w3.org/1999/xlink" x="0px" y="0px"
	 viewBox="0 0 388 100" style="enable-background:new 0 0 388 100;" xml:space="preserve">
<style type="text/css">
	.st0{fill:#152852;}
</style>
<g>
	<g>
		<g>
			<path class="st0" d="M84.7,80h3.8c3.1,0,4.9,1,4.9,3.7c0,2.6-1.8,3.9-4.9,3.9h-2.8v5.7h-1V80z M88.2,86.8c2.8,0,4.2-0.9,4.2-3.1
				c0-2.2-1.4-2.9-4.2-2.9h-2.5v6H88.2z"/>
			<path class="st0" d="M98.2,83.6H99l0.1,2.4l0,0c1.1-1.6,2.7-2.7,4.7-2.7c0.7,0,1.4,0.1,2,0.4l-0.3,0.8c-0.7-0.3-1.1-0.4-1.9-0.4
				c-1.7,0-3.2,0.8-4.6,3v6.1h-0.9v-9.6H98.2z"/>
			<path class="st0" d="M108.8,88.5c0-3.3,2.2-5.1,4.9-5.1c2.6,0,4.9,1.9,4.9,5.1c0,3.2-2.2,5.1-4.9,5.1
				C111.1,93.6,108.8,91.7,108.8,88.5z M117.6,88.5c0-2.6-1.6-4.3-3.9-4.3s-3.9,1.8-3.9,4.3c0,2.6,1.6,4.3,3.9,4.3
				S117.6,91,117.6,88.5z"/>
			<path class="st0" d="M121.4,88.5c0-3.1,2.2-5.1,4.7-5.1c1.3,0,2.3,0.5,3.3,1.4l0,0l-0.1-2v-4h0.9v14.6h-0.8l-0.1-1.4l0,0
				c-0.9,0.9-2.2,1.7-3.6,1.7C123.2,93.6,121.4,91.8,121.4,88.5z M129.4,91v-5.4c-1.1-1-2.2-1.4-3.2-1.4c-2.1,0-3.8,1.9-3.8,4.3
				c0,2.6,1.3,4.3,3.6,4.3C127.1,92.8,128.3,92.1,129.4,91z"/>
			<path class="st0" d="M134.4,89.7v-6.1h0.9v5.9c0,2.2,0.8,3.2,2.8,3.2c1.4,0,2.5-0.7,3.9-2.2v-7h0.9v9.7H142l-0.1-1.9h0
				c-1.1,1.2-2.3,2.1-4,2.1C135.6,93.6,134.4,92.3,134.4,89.7z"/>
			<path class="st0" d="M149.9,89.7v-5.3h-3v-0.7l3.1-0.1l0.1-3.2h0.8v3.2h5.4v0.8h-5.4v5.4c0,1.9,0.6,3,2.8,3
				c1.1,0,1.9-0.2,2.7-0.5l0.3,0.7c-0.9,0.4-1.8,0.6-3.1,0.6C150.7,93.6,149.9,92,149.9,89.7z"/>
			<path class="st0" d="M159.2,88.5c0-3.3,2.2-5.1,4.9-5.1c2.6,0,4.9,1.9,4.9,5.1c0,3.2-2.2,5.1-4.9,5.1S159.2,91.7,159.2,88.5z
				 M167.9,88.5c0-2.6-1.6-4.3-3.9-4.3c-2.3,0-3.9,1.8-3.9,4.3c0,2.6,1.6,4.3,3.9,4.3C166.3,92.8,167.9,91,167.9,88.5z"/>
			<path class="st0" d="M172,92l0.5-0.7c1.1,0.8,2.5,1.4,4.6,1.4s3.1-0.9,3.1-1.9c0-0.9-0.4-1.6-3.5-2.2c-2.6-0.5-4-1.3-4-2.7
				s1.2-2.6,3.9-2.6c1.4,0,2.9,0.5,3.9,1.2l-0.5,0.6c-0.9-0.6-2.1-1.1-3.4-1.1c-2.2,0-2.9,0.9-2.9,1.8c0,1,1,1.5,3.3,2
				c3.5,0.7,4.3,1.5,4.3,2.9c0,1.5-1.5,2.7-4.2,2.7C174.9,93.6,173.2,92.8,172,92z"/>
			<path class="st0" d="M197.4,90.9c0-2.2,2.3-3.2,7.7-3.7c0-1.6-0.7-3.1-3-3.1c-1.5,0-3,0.8-3.8,1.3l-0.4-0.7
				c0.8-0.6,2.6-1.4,4.4-1.4c2.7,0,3.8,1.7,3.8,3.8v6.2h-0.8l-0.1-1.5l0,0c-1.2,0.9-2.7,1.7-4.2,1.7
				C199.1,93.6,197.4,92.7,197.4,90.9z M205.1,91v-3.1c-5.1,0.4-6.8,1.4-6.8,2.9c0,1.4,1.4,1.9,2.7,1.9
				C202.4,92.8,203.7,92.2,205.1,91z"/>
			<path class="st0" d="M209.8,95.2c0-0.8,0.6-1.6,1.7-2.3v-0.1c-0.5-0.2-1-0.7-1-1.6c0-0.6,0.4-1.3,1.2-1.8v-0.1
				c-0.6-0.5-1.2-1.3-1.2-2.5c0-2,1.7-3.5,3.7-3.5c0.6,0,1,0.1,1.4,0.2h4.2v0.8h-3c0.6,0.6,1.2,1.4,1.2,2.5c0,2-1.7,3.4-3.7,3.4
				c-0.6,0-1.3-0.2-1.9-0.5c-0.6,0.3-1,0.8-1,1.4c0,0.9,0.9,1.4,2.3,1.4h2.5c2.6,0,3.7,0.6,3.7,2.2c0,1.7-2.1,3.3-5.3,3.3
				C211.4,98,209.8,96.9,209.8,95.2z M218.9,94.8c0-1.1-0.9-1.4-2.6-1.4h-2.4c-0.5,0-1.1,0-1.5-0.2c-1.2,0.6-1.6,1.3-1.6,2
				c0,1.2,1.2,2.1,3.7,2.1C217.3,97.3,218.9,96,218.9,94.8z M217.1,86.8c0-1.6-1.3-2.7-2.8-2.7s-2.8,1.1-2.8,2.7
				c0,1.6,1.3,2.7,2.8,2.7S217.1,88.4,217.1,86.8z"/>
			<path class="st0" d="M224.1,83.6h0.8L225,86l0,0c1.1-1.6,2.7-2.7,4.7-2.7c0.7,0,1.4,0.1,2,0.4l-0.3,0.8c-0.7-0.3-1.1-0.4-1.9-0.4
				c-1.7,0-3.2,0.8-4.6,3v6.1H224L224.1,83.6L224.1,83.6z"/>
			<path class="st0" d="M234.7,88.5c0-3.3,2.2-5.1,4.9-5.1c2.6,0,4.9,1.9,4.9,5.1c0,3.2-2.2,5.1-4.9,5.1S234.7,91.7,234.7,88.5z
				 M243.5,88.5c0-2.6-1.6-4.3-3.9-4.3c-2.3,0-3.9,1.8-3.9,4.3c0,2.6,1.6,4.3,3.9,4.3C241.8,92.8,243.5,91,243.5,88.5z"/>
			<path class="st0" d="M247.5,88.5c0-3.2,2.4-5.1,5-5.1c2.8,0,4.5,1.7,4.5,4.5c0,0.3,0,0.5-0.1,0.7h-9v-0.8h8.6l-0.4,0.4
				c0-2.8-1.5-4.1-3.6-4.1s-4.1,1.6-4.1,4.3c0,2.8,2,4.4,4.4,4.4c1.4,0,2.4-0.4,3.4-1.1l0.4,0.7c-0.9,0.6-2,1.1-3.8,1.1
				C249.9,93.6,247.5,91.7,247.5,88.5z"/>
			<path class="st0" d="M260.3,88.5c0-3.3,2.5-5.1,5.5-5.1c1.7,0,2.8,0.7,3.6,1.5l-0.5,0.6c-0.9-0.8-1.8-1.3-3.1-1.3
				c-2.7,0-4.5,1.8-4.5,4.3c0,2.6,1.8,4.3,4.5,4.3c1.4,0,2.5-0.6,3.4-1.4l0.5,0.6c-1,0.9-2.3,1.6-3.9,1.6
				C262.6,93.6,260.3,91.7,260.3,88.5z"/>
			<path class="st0" d="M272.4,88.5c0-3.3,2.2-5.1,4.9-5.1c2.6,0,4.9,1.9,4.9,5.1c0,3.2-2.2,5.1-4.9,5.1
				C274.7,93.6,272.4,91.7,272.4,88.5z M281.2,88.5c0-2.6-1.6-4.3-3.9-4.3s-3.9,1.8-3.9,4.3c0,2.6,1.6,4.3,3.9,4.3
				S281.2,91,281.2,88.5z"/>
			<path class="st0" d="M289.3,90.4V79.5h-3.8v-0.8h4.8v11.8c0,1.5,0.8,2.3,2.2,2.3c0.6,0,1.3-0.2,2.1-0.5l0.3,0.7
				c-0.9,0.4-1.5,0.6-2.5,0.6C290.4,93.6,289.3,92.6,289.3,90.4z"/>
			<path class="st0" d="M297.6,88.5c0-3.3,2.2-5.1,4.9-5.1c2.6,0,4.9,1.9,4.9,5.1c0,3.2-2.2,5.1-4.9,5.1
				C299.8,93.6,297.6,91.7,297.6,88.5z M306.4,88.5c0-2.6-1.6-4.3-3.9-4.3s-3.9,1.8-3.9,4.3c0,2.6,1.6,4.3,3.9,4.3
				C304.7,92.8,306.4,91,306.4,88.5z M301.3,81.3l2.8-3.2l0.7,0.6l-3,3.1L301.3,81.3z"/>
			<path class="st0" d="M310.5,95.2c0-0.8,0.6-1.6,1.7-2.3v-0.1c-0.5-0.2-1-0.7-1-1.6c0-0.6,0.4-1.3,1.2-1.8v-0.1
				c-0.6-0.5-1.2-1.3-1.2-2.5c0-2,1.7-3.5,3.7-3.5c0.6,0,1,0.1,1.4,0.2h4.2v0.8h-3c0.6,0.6,1.2,1.4,1.2,2.5c0,2-1.7,3.4-3.7,3.4
				c-0.6,0-1.3-0.2-1.9-0.5c-0.6,0.3-1,0.8-1,1.4c0,0.9,0.9,1.4,2.3,1.4h2.5c2.6,0,3.7,0.6,3.7,2.2c0,1.7-2.1,3.3-5.3,3.3
				C312.1,98,310.5,96.9,310.5,95.2z M319.6,94.8c0-1.1-0.9-1.4-2.6-1.4h-2.4c-0.5,0-1.1,0-1.5-0.2c-1.2,0.6-1.6,1.3-1.6,2
				c0,1.2,1.2,2.1,3.7,2.1C317.9,97.3,319.6,96,319.6,94.8z M317.8,86.8c0-1.6-1.3-2.7-2.8-2.7s-2.8,1.1-2.8,2.7
				c0,1.6,1.3,2.7,2.8,2.7S317.8,88.4,317.8,86.8z"/>
			<path class="st0" d="M328.4,84.4h-5v-0.8h6v9.7h-0.9v-8.9H328.4z M327.7,80.3c0-0.6,0.4-1,1-1s1,0.4,1,1s-0.4,1-1,1
				C328.1,81.2,327.7,80.9,327.7,80.3z"/>
			<path class="st0" d="M335.8,88.5c0-3.3,2.5-5.1,5.5-5.1c1.7,0,2.8,0.7,3.6,1.5l-0.5,0.6c-0.9-0.8-1.8-1.3-3.1-1.3
				c-2.7,0-4.5,1.8-4.5,4.3c0,2.6,1.8,4.3,4.5,4.3c1.4,0,2.5-0.6,3.4-1.4l0.5,0.6c-1,0.9-2.3,1.6-3.9,1.6
				C338.1,93.6,335.8,91.7,335.8,88.5z"/>
			<path class="st0" d="M347.9,88.5c0-3.3,2.2-5.1,4.9-5.1c2.6,0,4.9,1.9,4.9,5.1c0,3.2-2.2,5.1-4.9,5.1
				C350.2,93.6,347.9,91.7,347.9,88.5z M356.7,88.5c0-2.6-1.6-4.3-3.9-4.3s-3.9,1.8-3.9,4.3c0,2.6,1.6,4.3,3.9,4.3
				S356.7,91,356.7,88.5z"/>
			<path class="st0" d="M360.8,92l0.5-0.7c1.1,0.8,2.5,1.4,4.6,1.4s3.1-0.9,3.1-1.9c0-0.9-0.4-1.6-3.5-2.2c-2.6-0.5-4-1.3-4-2.7
				s1.2-2.6,3.9-2.6c1.4,0,2.9,0.5,3.9,1.2l-0.5,0.6c-0.9-0.6-2.1-1.1-3.4-1.1c-2.2,0-2.9,0.9-2.9,1.8c0,1,1,1.5,3.3,2
				c3.5,0.7,4.3,1.5,4.3,2.9c0,1.5-1.5,2.7-4.2,2.7C363.7,93.6,362,92.8,360.8,92z"/>
		</g>
		<g>
			<g>
				<g>
					<g>
						<path class="st0" d="M47.7,41.2L47.7,41.2c0,0.1,0,0.3,0,0.4c0,0.2-0.1,0.3-0.1,0.5l-0.1,0.3c-0.4,1.7-0.9,3.2-1.5,4.6
							c-2.2,5.3-5.8,10.1-10.8,14.1c-8.7,7-20.4,10.7-32.7,10.5c-1.4,0-2.4-1-2.5-2.1c0.2-9.4,4.8-18.2,13.1-24.8
							c2.5-2,5.3-3.8,8.2-5.2c1.6-0.8,3.4-1.6,5.3-2.2c5.3-1.9,11-2.9,17-3.1l0.1,4.2c-5.3,0.1-10.4,1-15.1,2.7
							c-1.7,0.6-3.3,1.3-4.7,2c-2.6,1.3-5,2.8-7.3,4.6C9.9,53,5.9,59.9,5.2,67.4c10-0.3,19.4-3.6,26.5-9.3c4.4-3.6,7.7-7.8,9.6-12.5
							c0.5-1.2,0.9-2.5,1.3-3.9c0-0.1,0.1-0.3,0.1-0.4l0.1-0.3l2.3,0.3L47.7,41.2z"/>
					</g>
				</g>
				<g>
					<g>
						<path class="st0" d="M47.7,41.2L47.7,41.2c0,0.1,0,0.3,0,0.4c0,0.2-0.1,0.3-0.1,0.5l-0.1,0.3c-0.4,1.7-0.9,3.2-1.5,4.6
							c-2.2,5.3-5.8,10.1-10.8,14.1c-8.7,7-20.4,10.7-32.7,10.5c-1.4,0-2.4-1-2.5-2.1c0.2-9.4,4.8-18.2,13.1-24.8
							c2.5-2,5.3-3.8,8.2-5.2c1.6-0.8,3.4-1.6,5.3-2.2c5.3-1.9,11-2.9,17-3.1l0.1,4.2c-5.3,0.1-10.4,1-15.1,2.7
							c-1.7,0.6-3.3,1.3-4.7,2c-2.6,1.3-5,2.8-7.3,4.6C9.9,53,5.9,59.9,5.2,67.4c10-0.3,19.4-3.6,26.5-9.3c4.4-3.6,7.7-7.8,9.6-12.5
							c0.5-1.2,0.9-2.5,1.3-3.9c0-0.1,0.1-0.3,0.1-0.4l0.1-0.3l2.3,0.3L47.7,41.2z"/>
					</g>
				</g>
			</g>
			<g>
				<g>
					<g>
						<path class="st0" d="M47.7,41.2h-2.6l-2.4,0.3l-0.1-0.3c0-0.2-0.1-0.3-0.1-0.5c-0.3-1.3-0.7-2.6-1.3-3.8
							c-1.9-4.7-5.1-8.9-9.6-12.5c-7.2-5.7-16.5-9-26.5-9.3c0.8,7.4,4.8,14.3,11.4,19.7c2.2,1.8,4.7,3.3,7.3,4.6
							c1.5,0.7,3.1,1.4,4.7,2c4.7,1.7,9.8,2.6,15.1,2.7l-0.1,4.2c-5.9-0.1-11.7-1.1-17-3.1c-1.9-0.7-3.7-1.4-5.3-2.2
							c-2.9-1.4-5.7-3.2-8.2-5.2C4.8,31.3,0.2,22.5,0,13.1C0,12,1.1,11,2.5,10.9c12.4-0.3,24,3.5,32.7,10.5c5,4,8.7,8.8,10.8,14.2
							c0.6,1.4,1.1,2.9,1.5,4.5l0.1,0.4c0,0.2,0.1,0.3,0.1,0.5C47.7,41,47.7,41.1,47.7,41.2z"/>
					</g>
				</g>
				<g>
					<g>
						<path class="st0" d="M47.7,41.2h-2.6l-2.4,0.3l-0.1-0.3c0-0.2-0.1-0.3-0.1-0.5c-0.3-1.3-0.7-2.6-1.3-3.8
							c-1.9-4.7-5.1-8.9-9.6-12.5c-7.2-5.7-16.5-9-26.5-9.3c0.8,7.4,4.8,14.3,11.4,19.7c2.2,1.8,4.7,3.3,7.3,4.6
							c1.5,0.7,3.1,1.4,4.7,2c4.7,1.7,9.8,2.6,15.1,2.7l-0.1,4.2c-5.9-0.1-11.7-1.1-17-3.1c-1.9-0.7-3.7-1.4-5.3-2.2
							c-2.9-1.4-5.7-3.2-8.2-5.2C4.8,31.3,0.2,22.5,0,13.1C0,12,1.1,11,2.5,10.9c12.4-0.3,24,3.5,32.7,10.5c5,4,8.7,8.8,10.8,14.2
							c0.6,1.4,1.1,2.9,1.5,4.5l0.1,0.4c0,0.2,0.1,0.3,0.1,0.5C47.7,41,47.7,41.1,47.7,41.2z"/>
					</g>
				</g>
			</g>
		</g>
		<g>
			<g>
				<path class="st0" d="M57,66.9h6.5V11.6H57V4.8h28.7c13.1,0,20.9,7.6,20.9,17.6c0,6.8-3.2,11.9-8.8,14.9v0.6
					c4.6,1.6,11.1,6.5,11.1,16.2c0,12.4-9.6,19.6-21.3,19.6H57V66.9z M85.4,34.7c7.8,0,13-4.6,13-11.6c0-6.8-5.3-11.1-12.7-11.1
					H71.4v22.7H85.4z M86.3,66.7c8.2,0,14.4-3.9,14.4-12.8c0-9.1-7.3-12.6-15.3-12.6h-14v25.4H86.3z"/>
			</g>
			<g>
				<path class="st0" d="M129.4,29.1h-9.6v-6.6h17.4v51.2h-7.8V29.1z M127.6,7.6c0-3.1,2.4-5.6,5.6-5.6c3.3,0,5.7,2.5,5.7,5.6
					c0,3.2-2.4,5.7-5.7,5.7C130,13.3,127.6,10.8,127.6,7.6z"/>
			</g>
			<g>
				<path class="st0" d="M152.7,48.1c0-15.4,11.5-26.9,26.8-26.9c15.5,0,26.7,11.5,26.7,26.9S194.8,75,179.4,75
					S152.7,63.7,152.7,48.1z M198.2,48.1c0-11.3-7.8-19.8-18.8-19.8s-18.7,8.6-18.7,19.8c0,11.5,7.8,19.8,18.7,19.8
					C190.4,67.9,198.2,59.5,198.2,48.1z"/>
			</g>
		</g>
		<g>
			<g>
				<path class="st0" d="M215.5,53.3h8c0,8,6.5,14.4,16.9,14.4c9.1,0,15.5-4.4,15.5-11.6c0-21.6-38.1-6.5-38.1-34
					c0-9.8,8.2-18.4,22-18.4c10.4,0,22.6,5.7,22.6,20h-8.2c0-7.9-5.2-12.7-14.6-12.7c-9.7,0-14,5.4-14,11.1
					c0,18.8,38.2,5.7,38.2,33.6c0,10.8-8.9,19.5-23.9,19.5C226.4,75,215.5,66,215.5,53.3z"/>
			</g>
			<g>
				<path class="st0" d="M273.9,48.3c0-16.3,11.2-27.1,24.8-27.1c15.4,0,24.3,10.8,24.3,26.2v2.9h-41.1c0.1,11.4,6.8,17.8,17.4,17.8
					c7.2,0,13.8-4.1,15.4-11.2l7.6,1.8c-2.9,9.5-11.3,16.3-23.1,16.3C283.6,75,273.9,64.1,273.9,48.3z M315,44
					c-0.5-10.6-7.9-15.7-16.3-15.7s-16,6.1-16.6,15.7H315z"/>
			</g>
			<g>
				<path class="st0" d="M332.8,48.2c0-15.7,9.8-27,24.4-27c10.6,0,15.9,6.9,17.4,9.5h0.6v-8.3h7.9v41.9c0,1.6,1,2.4,2.6,2.4h2.4
					v6.9h-5c-4.2,0-7.4-3.1-7.5-7.6v-0.5h-0.6c-1.3,2.1-6,9.3-17.1,9.3C343.1,75,332.8,63.9,332.8,48.2z M375.5,48.3
					c0-12.7-7.9-20-17.4-20c-10,0-17.3,8.3-17.3,20c0,11.9,7.6,19.7,17.4,19.7C368.9,68,375.5,59.1,375.5,48.3z"/>
			</g>
		</g>
	</g>
</g>
</svg>
