<?xml version="1.0" encoding="utf-8"?>
<!-- Generator: Adobe Illustrator 24.2.1, SVG Export Plug-In . SVG Version: 6.00 Build 0)  -->
<svg version="1.1" id="Camada_1" xmlns="http://www.w3.org/2000/svg" xmlns:xlink="http://www.w3.org/1999/xlink" x="0px" y="0px"
	 viewBox="0 0 550 300" style="enable-background:new 0 0 550 300;" xml:space="preserve">
<style type="text/css">
	.st0{fill:#126138;}
	.st1{clip-path:url(#SVGID_2_);fill:url(#SVGID_3_);}
	.st2{clip-path:url(#SVGID_5_);fill:url(#SVGID_6_);}
</style>
<g>
	<polygon class="st0" points="222.8,131.4 266.6,131.4 266.6,146.3 241.1,146.3 241.1,159 265.1,159 265.1,173.8 241.1,173.8 
		241.1,199.7 222.8,199.7 	"/>
	<path class="st0" d="M289.6,183.9l-3.9,15.8h-18.9l19.8-68.4h24.4l20.4,68.4h-19.8l-4.4-15.8H289.6z M304.8,170.4l-3.2-12.3
		c-1-3.9-2.3-9.4-3.4-13.5H298c-1,4-2,9.7-3,13.5l-2.9,12.2H304.8z"/>
	<path class="st0" d="M340.2,132.3c5.2-0.8,12.9-1.5,22.1-1.5c10.5,0,18,1.4,23.1,5.3c4.4,3.3,6.7,8.2,6.7,14.9
		c0,8.5-6.4,14.6-11.7,16.5v0.4c4.5,2,7,6.3,8.7,12.2c2.1,6.9,4.3,16.9,5.6,19.5h-18.7c-1-2-2.8-7.3-4.8-15.7
		c-1.9-8.2-4.4-9.9-10-9.9h-3v25.6h-18.1V132.3z M358.3,161h4.8c6.9,0,10.9-3.4,10.9-8.5s-3.4-8-9.5-8.1c-3.4,0-5.3,0.2-6.2,0.4V161
		z"/>
	<path class="st0" d="M466.2,164.9c0,22-13.2,36-34.3,36c-21.2,0-32.8-15.9-32.8-34.9c0-19.9,13-35.7,34-35.7
		C455.1,130.3,466.2,146.6,466.2,164.9 M418.5,165.6c0,12.9,5.6,20.7,14.4,20.7c8.9,0,14-8.6,14-20.9c0-11.8-5.3-20.7-14.1-20.7
		C424.1,144.8,418.5,153.1,418.5,165.6"/>
	<polygon class="st0" points="476,131.4 494.3,131.4 494.3,184.4 520.6,184.4 520.6,199.7 476,199.7 	"/>
	<path class="st0" d="M222.6,212.1c1-0.2,2.2-0.3,3.8-0.3c2,0,3.4,0.5,4.3,1.3c0.8,0.7,1.4,1.9,1.4,3.2c0,1.4-0.4,2.5-1.2,3.3
		c-1.1,1.1-2.8,1.7-4.7,1.7c-0.6,0-1.2,0-1.6-0.1v6.2h-2V212.1z M224.6,219.6c0.4,0.1,1,0.2,1.7,0.2c2.4,0,3.9-1.2,3.9-3.3
		c0-2-1.5-3.1-3.7-3.1c-0.9,0-1.5,0.1-1.9,0.2V219.6z"/>
	<path class="st0" d="M238,212.1c1-0.2,2.5-0.3,3.8-0.3c2.1,0,3.5,0.4,4.5,1.3c0.8,0.7,1.2,1.7,1.2,2.9c0,2-1.3,3.4-2.9,3.9v0.1
		c1.2,0.4,1.9,1.5,2.3,3.1c0.5,2.2,0.9,3.6,1.2,4.2H246c-0.2-0.4-0.6-1.8-1-3.7c-0.5-2.1-1.3-2.9-3.1-3H240v6.7h-2V212.1z
		 M240,219.2h2c2.1,0,3.5-1.2,3.5-2.9c0-2-1.5-2.9-3.6-2.9c-1,0-1.6,0.1-2,0.2V219.2z"/>
	<path class="st0" d="M266.8,219.5c0,5.3-3.2,8.1-7.2,8.1c-4.1,0-7-3.2-7-7.9c0-4.9,3-8.1,7.2-8.1
		C264.1,211.7,266.8,214.9,266.8,219.5 M254.8,219.8c0,3.3,1.8,6.3,5,6.3c3.2,0,5-2.9,5-6.4c0-3.1-1.6-6.3-4.9-6.3
		C256.4,213.3,254.8,216.4,254.8,219.8"/>
	<polygon class="st0" points="274.9,213.6 270.2,213.6 270.2,211.9 281.7,211.9 281.7,213.6 276.9,213.6 276.9,227.4 274.9,227.4 	
		"/>
	<polygon class="st0" points="294.6,220.1 288.6,220.1 288.6,225.7 295.3,225.7 295.3,227.4 286.6,227.4 286.6,211.9 294.9,211.9 
		294.9,213.6 288.6,213.6 288.6,218.5 294.6,218.5 	"/>
	<path class="st0" d="M305.4,208.4l-2.9,2.7h-1.6l2.1-2.7H305.4z M303,227.4h-2v-15.5h2V227.4z"/>
	<path class="st0" d="M309.7,227.4v-15.5h2.2l5,7.8c1.1,1.8,2,3.4,2.8,5l0.1,0c-0.2-2.1-0.2-4-0.2-6.4v-6.5h1.9v15.5h-2l-4.9-7.8
		c-1.1-1.7-2.1-3.5-2.9-5.2l-0.1,0c0.1,2,0.1,3.8,0.1,6.4v6.6H309.7z"/>
	<path class="st0" d="M330.5,222.5l-1.6,4.9h-2.1l5.3-15.5h2.4l5.3,15.5h-2.1l-1.7-4.9H330.5z M335.6,221l-1.5-4.5
		c-0.3-1-0.6-1.9-0.8-2.8h-0.1c-0.2,0.9-0.5,1.9-0.8,2.8l-1.5,4.5H335.6z"/>
	<path class="st0" d="M344.9,225c0.9,0.6,2.2,1,3.6,1c2,0,3.2-1.1,3.2-2.6c0-1.4-0.8-2.3-2.9-3.1c-2.5-0.9-4.1-2.2-4.1-4.4
		c0-2.4,2-4.2,5-4.2c1.6,0,2.7,0.4,3.4,0.7l-0.6,1.6c-0.5-0.3-1.5-0.7-2.9-0.7c-2.1,0-2.9,1.3-2.9,2.3c0,1.4,0.9,2.1,3.1,3
		c2.6,1,3.9,2.3,3.9,4.6c0,2.4-1.7,4.5-5.4,4.5c-1.5,0-3.1-0.5-4-1L344.9,225z"/>
	<polygon class="st0" points="375.7,220.1 369.7,220.1 369.7,225.7 376.4,225.7 376.4,227.4 367.7,227.4 367.7,211.9 376.1,211.9 
		376.1,213.6 369.7,213.6 369.7,218.5 375.7,218.5 	"/>
	<path class="st0" d="M402,226.7c-0.9,0.3-2.7,0.9-4.8,0.9c-2.3,0-4.3-0.6-5.8-2c-1.3-1.3-2.2-3.3-2.2-5.7c0-4.6,3.2-8,8.4-8
		c1.8,0,3.2,0.4,3.9,0.7l-0.5,1.6c-0.8-0.4-1.9-0.7-3.4-0.7c-3.8,0-6.2,2.3-6.2,6.2c0,3.9,2.4,6.2,6,6.2c1.3,0,2.2-0.2,2.7-0.4v-4.6
		h-3.1v-1.6h5.1V226.7z"/>
	<path class="st0" d="M421.5,219.5c0,5.3-3.2,8.1-7.2,8.1c-4.1,0-7-3.2-7-7.9c0-4.9,3-8.1,7.2-8.1
		C418.7,211.7,421.5,214.9,421.5,219.5 M409.4,219.8c0,3.3,1.8,6.3,5,6.3c3.2,0,5-2.9,5-6.4c0-3.1-1.6-6.3-4.9-6.3
		C411.1,213.3,409.4,216.4,409.4,219.8"/>
	<path class="st0" d="M427.2,212.1c1-0.2,2.5-0.3,3.8-0.3c2.1,0,3.5,0.4,4.5,1.3c0.8,0.7,1.2,1.7,1.2,2.9c0,2-1.3,3.4-2.9,3.9v0.1
		c1.2,0.4,1.9,1.5,2.3,3.1c0.5,2.2,0.9,3.6,1.2,4.2h-2.1c-0.2-0.4-0.6-1.8-1-3.7c-0.5-2.1-1.3-2.9-3.1-3h-1.9v6.7h-2V212.1z
		 M429.2,219.2h2c2.1,0,3.5-1.2,3.5-2.9c0-2-1.5-2.9-3.6-2.9c-1,0-1.6,0.1-2,0.2V219.2z"/>
	<path class="st0" d="M442.7,212.1c1.2-0.2,2.7-0.3,4.3-0.3c2.9,0,4.9,0.7,6.3,1.9c1.4,1.3,2.2,3,2.2,5.5c0,2.5-0.8,4.6-2.2,6
		c-1.5,1.4-3.9,2.2-6.9,2.2c-1.4,0-2.6-0.1-3.6-0.2V212.1z M444.7,225.8c0.5,0.1,1.2,0.1,2,0.1c4.3,0,6.6-2.4,6.6-6.6
		c0-3.7-2-6-6.3-6c-1,0-1.8,0.1-2.3,0.2V225.8z"/>
	<path class="st0" d="M463.2,211.9v9.2c0,3.5,1.5,4.9,3.6,4.9c2.3,0,3.8-1.5,3.8-4.9v-9.2h2v9c0,4.8-2.5,6.7-5.9,6.7
		c-3.2,0-5.5-1.8-5.5-6.6v-9.1H463.2z"/>
	<path class="st0" d="M479.2,212.1c1-0.2,2.5-0.3,3.8-0.3c2.1,0,3.5,0.4,4.5,1.3c0.8,0.7,1.2,1.7,1.2,2.9c0,2-1.3,3.4-2.9,3.9v0.1
		c1.2,0.4,1.9,1.5,2.3,3.1c0.5,2.2,0.9,3.6,1.2,4.2h-2.1c-0.2-0.4-0.6-1.8-1-3.7c-0.5-2.1-1.3-2.9-3.1-3h-1.9v6.7h-2V212.1z
		 M481.2,219.2h2c2.1,0,3.5-1.2,3.5-2.9c0-2-1.5-2.9-3.6-2.9c-1,0-1.6,0.1-2,0.2V219.2z"/>
	<path class="st0" d="M497.4,222.5l-1.6,4.9h-2.1l5.3-15.5h2.4l5.3,15.5h-2.1l-1.7-4.9H497.4z M502.5,221l-1.5-4.5
		c-0.3-1-0.6-1.9-0.8-2.8h-0.1c-0.2,0.9-0.5,1.9-0.8,2.8l-1.5,4.5H502.5z"/>
	<path class="st0" d="M511.8,225c0.9,0.6,2.2,1,3.6,1c2,0,3.2-1.1,3.2-2.6c0-1.4-0.8-2.3-2.9-3.1c-2.5-0.9-4.1-2.2-4.1-4.4
		c0-2.4,2-4.2,5-4.2c1.6,0,2.7,0.4,3.4,0.7l-0.6,1.6c-0.5-0.3-1.5-0.7-2.9-0.7c-2.1,0-2.9,1.3-2.9,2.3c0,1.4,0.9,2.1,3.1,3
		c2.6,1,3.9,2.3,3.9,4.6c0,2.4-1.7,4.5-5.4,4.5c-1.5,0-3.1-0.5-4-1L511.8,225z"/>
	<g>
		<defs>
			<path id="SVGID_1_" d="M99.4,99.9v-5.2c0-1.4,1.2-2.6,2.6-2.6h2c1.4,0,2.6,1.1,2.6,2.6v5.2c0,1.4-1.2,2.6-2.6,2.6h-2
				C100.5,102.5,99.4,101.3,99.4,99.9 M114,99.9v-5.2c0-1.4,1.1-2.6,2.6-2.6h2c1.4,0,2.6,1.1,2.6,2.6v5.2c0,1.4-1.2,2.6-2.6,2.6h-2
				C115.2,102.5,114,101.3,114,99.9 M128.7,99.9v-5.2c0-1.4,1.2-2.6,2.6-2.6h2c1.4,0,2.6,1.1,2.6,2.6v5.2c0,1.4-1.2,2.6-2.6,2.6h-2
				C129.9,102.5,128.7,101.3,128.7,99.9 M115.4,26.8v23.4c-15.1,1-27.2,12.6-29.1,27.4h-4.9c-0.9,0-1.7,0.8-1.7,1.7v4.4
				c0,0.9,0.8,1.7,1.7,1.7h7.2v23.8H73.1c-1.8,0-3.1,1.9-2.4,3.6l2.6,6.5c0.4,1,1.3,1.6,2.4,1.6h12.9l-2.5,35.5
				c-0.1,2,0,4.1,0.5,6.1c1.4,6.1,4.8,17.2,8.2,27.8c4.5,14,8.9,27.3,9,27.6c4.2-2.2,8.2-5,12-8.4l0.7-0.7c4.3-3.8,8.7-7.8,12.6-12
				c4.9-5.4,9.7-11.1,14.3-16.6l2.1-2.5c1.6-1.9,3.2-4,4.7-6l-3.6-50.9h12.9c1.1,0,2-0.6,2.4-1.6l2.6-6.5c0.7-1.7-0.6-3.6-2.4-3.6
				h-15.5V85.4h7.2c0.9,0,1.7-0.8,1.7-1.7v-4.4c0-0.9-0.8-1.7-1.7-1.7h-5.2c-1.9-14.8-14-26.4-29.1-27.4V26.9c0-1.1-0.8-2.1-1.9-2.2
				c-0.1,0-0.1,0-0.2,0C116.3,24.6,115.4,25.6,115.4,26.8"/>
		</defs>
		<clipPath id="SVGID_2_">
			<use xlink:href="#SVGID_1_"  style="overflow:visible;"/>
		</clipPath>
		
			<linearGradient id="SVGID_3_" gradientUnits="userSpaceOnUse" x1="-143.9937" y1="447.4985" x2="-142.9937" y2="447.4985" gradientTransform="matrix(94.2637 0 0 -94.2637 13643.8613 42304.168)">
			<stop  offset="0" style="stop-color:#F2BB37"/>
			<stop  offset="1" style="stop-color:#B1803B"/>
		</linearGradient>
		<rect x="70" y="24.6" class="st1" width="95.3" height="193.3"/>
	</g>
	<g>
		<defs>
			<path id="SVGID_4_" d="M80.4,96.8C52.2,102,31.4,126,30,154.5c-0.6,1.4-0.8,3-0.6,4.9c0.5,4.1,1.1,7.8,1.7,11.5
				c1.5,9,3.4,17.2,5.8,25.1c1.6,5.1,3.3,10.5,5.2,15.8c1.1,3.2,2.5,6.2,3.7,9.2c0.4,1,0.9,2.1,1.3,3.1c3.8,8.9,7.8,16.5,12.4,23.2
				c5.2,7.6,10.3,13.2,15.9,17.6c8.9,7,18.2,10.4,28.4,10.4c1.3,0,2.6-0.1,4-0.2c9.1-0.8,16.7-4.4,22.9-7.8c1.1-0.6,7.1-4,8.3-4.9
				l1.6-1.2c1.9-1.4,3.9-2.9,5.8-4.5c4.5-3.8,8.6-7.3,12.6-11.1c4.1-3.8,7.9-7.8,11.5-11.6c3.4-3.6,7-7.4,10.4-11.5
				c3.7-4.5,6.8-8.3,9.5-12.4c3.5-5.4,6.8-10.9,9.7-16.5c1.7-3.2,2.8-6.6,4-9.8l0-0.1c0.3-0.7,0.5-1.5,0.8-2.2
				c1-2.7,1.7-5.4,2.3-8.1l0,0c0.7-3.3,1.1-6.5,1-9.8c0-1.1,0-2.1,0-3.2c-0.2-5.4-1.5-10.5-3.9-15.2c-2.1-4.1-4.9-7.7-7.2-10.3
				c-2.8-3.3-6.2-6.3-10.3-9c-4.8-3.7-10.3-7-16.4-9.9l-1.9,4.4c16.8,7.7,33.1,21.9,34.9,40.4c0.2,6.3-0.8,12.8-3,19.1
				c-0.3,0.7-0.5,1.5-0.8,2.3l-0.1,0.2c-1.1,3.1-2.2,6.2-3.7,9.2c-2.8,5.5-6,10.9-9.4,16.1c-2.6,4-5.5,7.6-9.1,12
				c-3.4,4-6.9,7.8-10.2,11.3c-3.5,3.7-7.3,7.6-11.3,11.4c-3.9,3.7-7.9,7.1-12.4,10.9c-1.8,1.5-3.7,2.9-5.6,4.3l-1.6,1.2
				c-0.8,0.6-1.5,0.9-2.1,1.1c-0.5,0.1-1.1,0.2-1.6,0.1l-2.3-0.5c0.5-1.1,1.2-2.2,2-3.3c4.6-6.2,9.5-12.2,14.2-18.4
				c6.7-8.9,12.9-18.1,17.7-28.2c2.7-5.8,4.8-11.8,4.7-16.8c0.1-9.8-3.5-16.3-10.5-21.1c-0.8-0.5-1.3-0.5-1.9,0.4
				c-1.8,2.6-3.6,5.1-5.7,7.6c-6.2,7.4-12.3,15-18.9,22.1c-4.2,4.6-8.9,8.7-13.5,12.9c-5.6,5-11.9,9-19,11.7
				c-8.2,3.1-16,2.1-23.4-2.5c-4.6-2.8-8.4-6.5-11.6-10.8c-5.1-6.7-9.5-13.8-13.1-21.4c-4.1-8.7-7.9-17.5-11.8-26.3
				c-1.2-2.6-1.9-5.3-3.5-7.7c-0.1-0.1-0.2-0.5-0.5-1.1c-0.4-1-0.6-2.2-0.5-3.3c1.9-25.6,20.9-47,46.5-51.7c1-0.2,2.1-0.3,3.1-0.5
				l-0.6-4.7v0C82.6,96.4,81.5,96.6,80.4,96.8"/>
		</defs>
		<clipPath id="SVGID_5_">
			<use xlink:href="#SVGID_4_"  style="overflow:visible;"/>
		</clipPath>
		
			<linearGradient id="SVGID_6_" gradientUnits="userSpaceOnUse" x1="-143.9975" y1="447.4992" x2="-142.9975" y2="447.4992" gradientTransform="matrix(178.9741 0 0 -178.9741 25801.002 80276.6094)">
			<stop  offset="0" style="stop-color:#F2BB37"/>
			<stop  offset="1" style="stop-color:#B1803B"/>
		</linearGradient>
		<rect x="29.2" y="96.3" class="st2" width="179.2" height="179.1"/>
	</g>
</g>
</svg>
