<svg xmlns="http://www.w3.org/2000/svg" xmlns:xlink="http://www.w3.org/1999/xlink" viewBox="0 0 472.87 204.03"><defs><style>.cls-1{fill:#126138;}.cls-2{fill:url(#Gradiente_sem_nome_4);}.cls-3{fill:#ee8045;}.cls-4{fill:url(#Gradiente_sem_nome_3);}</style><linearGradient id="Gradiente_sem_nome_4" x1="42.26" y1="72.17" x2="136.55" y2="72.17" gradientUnits="userSpaceOnUse"><stop offset="0" stop-color="#7d3739"/><stop offset="1" stop-color="#b23833"/></linearGradient><linearGradient id="Gradiente_sem_nome_3" y1="88.82" x2="107.24" y2="88.82" gradientUnits="userSpaceOnUse"><stop offset="0" stop-color="#f2bb37"/><stop offset="1" stop-color="#b1803b"/></linearGradient></defs><g id="Camada_2" data-name="Camada 2"><g id="Camada_1-2" data-name="Camada 1"><path class="cls-1" d="M117,178.24l12.75-60.16h27.14c12.27,0,20.9,6.59,20.9,18.16,0,14.3-10.75,21.11-27,21.11h-16l-4.18,20.89Zm20.14-31.79h13.31c8.29,0,13.41-2.66,13.4-9.58,0-5-3.16-8-10.52-8H140.93Zm87.48,4.84-3.22,15.06c-1.3,6-2.09,10-2.28,11.89h-13a34,34,0,0,1,.63-5.32c-2.93,3.92-7.59,6.52-15.54,6.52-11.47,0-14.94-7.33-14.94-12.89,0-12.75,12.92-15.41,24.07-16.46,3.44-.35,8.24-.42,11.3-.5l.19-.87c.82-3.62-.92-6.66-7.46-6.66-5.12,0-7.72,1.7-8.81,4.86H181.93c1.53-6.44,6.4-14,22.75-14,19.41,0,21.93,9.43,20,18.38ZM209.84,158c-3.21.08-6.39.24-9.16.51C196,159,190,160.21,190,165.08c0,2.55,2,4.36,6.23,4.36,7.28,0,11.65-3.35,13.55-10.92ZM231,134.11h7.65l2.93-13.25h13.32L252,134.11h9.78l-2.07,9.73H250L245.89,163c-.82,3.75-.62,5.55,3.51,5.55a27.29,27.29,0,0,0,4.75-.37l-2,9.42a33.4,33.4,0,0,1-8.66,1c-10.45,0-13.25-4.79-11.48-13.32l4.6-21.43H229Zm76.41,25.15H273.91c0,.22,0,.9,0,1.23,0,4.93,2.64,8.82,9,8.82,5.08,0,7.26-1.57,9.06-4.17h13.8c-3,7.52-10.13,14.3-23.91,14.3-14.66,0-21-9.13-21-20.11,0-12.14,8.38-26.42,26.94-26.42,14.58,0,20.85,8.51,20.85,18.83a23,23,0,0,1-1.12,7.52Zm-11.61-8.39c0-.16,0-.55,0-.9,0-4.63-2.89-7.61-8.81-7.61-6.26,0-9.85,3.6-11.18,8.51Zm21.69-5.62c.77-3.74,1.55-7.71,2.21-11.14h13.08c-.13,1.27-.58,4.26-.88,5.76,2.44-3.05,6.93-7,15.5-7,9.57,0,15.49,5.71,12.72,19l-5.59,26.35H341.24l5.3-25.28c1-5.05.5-9.38-6-9.38-6.67,0-10.54,4.79-12.33,13.35l-4.39,21.31H310.62ZM363,164.52h13.17c.58,3.84,3.49,5.72,9,5.72,3.44,0,7.35-1,7.35-4.22,0-2.62-2.14-3.84-9.32-5.45-13.2-3-16-7.54-16-13,0-8.24,6.87-14.67,20.08-14.67,16.52,0,20.73,8.9,21,14.21h-13.4c-.31-2.65-2.13-5.3-7.93-5.3-2.83,0-6,.82-6,3.62,0,2.25,2.2,3.37,8.65,4.88,13.05,3.1,16.74,7.28,16.74,13.91,0,9.11-7.88,15.21-22.08,15.21-11.94,0-20.84-4.66-21.27-14.92Zm95.07-5.26H424.57c0,.22,0,.9,0,1.23,0,4.93,2.64,8.82,9,8.82,5.08,0,7.27-1.57,9.06-4.17h13.81c-3,7.52-10.14,14.3-23.92,14.3-14.66,0-21-9.13-21-20.11,0-12.14,8.38-26.42,26.95-26.42,14.57,0,20.84,8.51,20.84,18.83a23,23,0,0,1-1.12,7.52Zm-11.61-8.39c0-.16,0-.55,0-.9,0-4.63-2.89-7.61-8.81-7.61-6.26,0-9.85,3.6-11.18,8.51Z"/><path class="cls-1" d="M190.23,190.76c2.17,0,4,1,4,3.41,0,2.58-1.74,4-5.18,4h-4.33l-1.14,5.58h-1.08l2.75-13Zm-5.3,6.45h4.13c2.05,0,4.05-.58,4-3,0-1.7-1.21-2.51-3.18-2.51h-3.78Zm12.56.56-1.27,6h-1.08l2.75-13h5c2.46,0,3.81,1.29,3.8,3.15a3.41,3.41,0,0,1-3,3.42c1,.28,1.85,1.31,1.38,3.54a12.74,12.74,0,0,0-.38,2.88h-1.11A11.42,11.42,0,0,1,204,201c.47-2.24-.06-3.2-2.49-3.2Zm1.27-6.05-1.08,5.09h3.52c2,0,4.35-.44,4.35-2.82,0-1.37-.85-2.27-2.91-2.27Zm22.48,4.64c0,3.94-2.25,7.67-7.21,7.67-3.55,0-5.65-2.46-5.65-5.86,0-3.95,2.6-7.69,7.26-7.69C219.05,190.48,221.24,192.85,221.24,196.36Zm-11.72,1.72c0,2.81,1.57,5,4.66,5,3.81,0,5.92-2.95,5.92-6.64,0-3.16-1.87-5-4.65-5C212,191.44,209.52,194.32,209.52,198.08Zm18.11-6.36h-4.94l.21-1h11l-.21,1h-5l-2.52,12h-1.08Zm15.93,5.64H236l-1.13,5.43h8.59l-.37,1h-9.51l2.75-13h9.06l-.21,1h-8l-1,4.68h7.58Zm5.92-6.6-2.75,13h-1.08l2.75-13Zm3.9-3.77-3.68,2.49h-1.39l3.42-2.49Zm-2.72,16.76,2.75-13h1.23c1.76,3.23,5.27,10.1,6,11.6h0c.31-1.87.71-3.72,1.15-5.82l1.22-5.78h1.08l-2.75,13h-1.18c-1.58-3-5.32-10.37-6-11.83h0c-.28,1.71-.68,3.57-1.17,5.9l-1.25,5.93Zm17.17-4.53-2.89,4.53h-1.21l8.31-13h1.2l3,13h-1.16l-1-4.53Zm.58-1h5.46c-.88-3.91-1.3-5.74-1.43-6.55h0c-.44.84-1.92,3.25-4,6.55Zm24-.9h-7.57l-1.14,5.43h8.6l-.38,1h-9.5l2.75-13h9l-.21,1h-8l-1,4.68h7.58Zm20.38-.52-1.48,6.91h-.84a13.35,13.35,0,0,1,.35-2.27c-.94,1.68-2.42,2.55-5,2.55-3.31,0-5.2-2.32-5.21-5.75,0-3.78,2.41-7.8,7.25-7.8,3.27,0,5,1.7,5.29,4.05h-1.1c-.36-1.84-1.78-3.09-4.32-3.09-3.88,0-6,3.24-6,6.8,0,2.65,1.36,4.81,4.31,4.81,3.48,0,4.81-2.07,5.44-4.94l.07-.31h-4.77l.22-1Zm15.25-.48c0,3.94-2.24,7.67-7.2,7.67-3.56,0-5.65-2.46-5.65-5.86,0-3.95,2.6-7.69,7.25-7.69C325.91,190.48,328.09,192.85,328.09,196.36Zm-11.71,1.72c0,2.81,1.57,5,4.66,5,3.8,0,5.92-2.95,5.92-6.64,0-3.16-1.87-5-4.65-5C318.9,191.44,316.38,194.32,316.38,198.08Zm15.81-.31-1.27,6h-1.08l2.75-13h5c2.45,0,3.81,1.29,3.79,3.15a3.4,3.4,0,0,1-3,3.42c1,.28,1.85,1.31,1.38,3.54a12.18,12.18,0,0,0-.38,2.88H338.3a11.94,11.94,0,0,1,.38-2.78c.47-2.24-.05-3.2-2.48-3.2Zm1.27-6.05-1.08,5.09h3.52c2,0,4.35-.44,4.35-2.82,0-1.37-.85-2.27-2.91-2.27Zm16.35-1a5.33,5.33,0,0,1,5.62,5.69c0,4.37-3,7.3-7.73,7.3h-5.08l2.75-13Zm-5.9,12h3.6c4.36,0,6.74-2.5,6.74-6.3,0-3.25-2.11-4.77-4.59-4.77h-3.42Zm17-12-1.62,7.6c-.81,3.85,1.46,4.69,3.58,4.69,3.15,0,4.24-1.76,4.83-4.53l1.65-7.76h1.1l-1.64,7.7c-.87,4.15-2.59,5.57-6.2,5.57-2.93,0-5.29-1.54-4.43-5.6l1.63-7.67Zm13,7-1.27,6H371.5l2.75-13h5c2.45,0,3.81,1.29,3.79,3.15a3.4,3.4,0,0,1-3,3.42c1,.28,1.85,1.31,1.38,3.54a12.18,12.18,0,0,0-.38,2.88H380a11.94,11.94,0,0,1,.38-2.78c.47-2.24,0-3.2-2.48-3.2Zm1.27-6.05L374,196.81h3.52c2,0,4.35-.44,4.35-2.82,0-1.37-.85-2.27-2.91-2.27Zm11.91,7.5-2.88,4.53h-1.21l8.3-13h1.21l3,13h-1.15l-1-4.53Zm.58-1h5.46c-.88-3.91-1.29-5.74-1.42-6.55h0c-.44.84-1.92,3.25-4,6.55Zm16.76,1-2.89,4.53h-1.21l8.31-13h1.2l3,13h-1.15l-1-4.53Zm.58-1h5.46c-.89-3.91-1.3-5.74-1.43-6.55h0c-.43.84-1.92,3.25-4,6.55Zm9.68,5.49,2.75-13h1.24c1.76,3.23,5.27,10.1,6,11.6h0c.3-1.87.71-3.72,1.14-5.82l1.23-5.78h1.07l-2.75,13h-1.17c-1.59-3-5.33-10.37-6-11.83h0c-.27,1.71-.67,3.57-1.16,5.9l-1.25,5.93Zm18.49-13-2.75,13h-1.08l2.75-13Zm14.38,7c.53-2.53,1.09-4.87,1.44-6.17h0c-.74,1.51-4.88,7.85-7.71,12.15h-.95c-.72-3.34-2.15-10.39-2.44-12.13h0c-.21,1.53-.81,4.4-1.27,6.58l-1.18,5.55H434.3l2.75-13h1.52c1,4.37,2.29,10.64,2.43,11.58h0c.69-1.12,4.89-7.55,7.52-11.58h1.53l-2.74,13h-1.1Zm6.08,1.45-2.89,4.53h-1.2l8.3-13H459l3,13h-1.15l-1-4.53Zm.58-1h5.46c-.88-3.91-1.3-5.74-1.42-6.55h0c-.44.84-1.92,3.25-4,6.55Zm12.44-7.5h1.08l-2.54,12h7.73l-.35,1h-8.67Z"/><path class="cls-2" d="M74.25,18.06a66,66,0,0,0-13.56,1,26.32,26.32,0,0,0-12.51,5.74,17,17,0,0,0-5.86,11.69c-.16,1.51-.1,1.53,1.44,1.69,4.85.5,9.72.91,14.54,1.63,5.22.79,10.43,1.71,15.58,2.88C83.61,45,93,48.19,101.2,54.05A17.83,17.83,0,0,1,108.56,65a28,28,0,0,1-1.06,17.16,86.46,86.46,0,0,1-9.3,17c-5,7.1-10.22,14-15.37,21-1.11,1.51-3.35,3-3.74,4.84-.07.39,0,1,.2,1.19a1.65,1.65,0,0,0,1.3.11,4.85,4.85,0,0,0,1.52-.81c2-1.45,4-2.86,5.81-4.43,3.41-2.88,6.82-5.78,10.07-8.84s6.16-6.09,9.15-9.23c2.83-3,5.64-6,8.28-9.15a104.53,104.53,0,0,0,7.4-9.68,146.57,146.57,0,0,0,7.62-13,75.63,75.63,0,0,0,3.65-9.36,40.46,40.46,0,0,0,2.43-15.46,26.06,26.06,0,0,0-2.69-10.56,37.55,37.55,0,0,0-5.22-7.45,39.93,39.93,0,0,0-10.76-8.57,1.33,1.33,0,0,0-1.18,0c-2.3,1.8-4.93,1.92-7.65,1.59Q100.14,20.14,91.28,19a117.63,117.63,0,0,0-14.6-1c-.81,0-1.62,0-2.43,0"/><path class="cls-3" d="M2.22,37.64a5.83,5.83,0,0,0,1.67,4.2C7,45.41,8.52,50.62,10.25,55A205.32,205.32,0,0,0,21.13,77C27.42,88.56,38.22,102.51,53,95.51c1.43-.68,1.48-.76.85-2.2-1.48-3.41-2-7.83-3.41-11.27-1.66-4-3.32-8.09-4.74-12.22-6.75-19.69-13.42-47.2,13.93-53.06,17.39-3.73,35.52.95,53,2.1a3.6,3.6,0,0,0,1.72-.48c.84-.45.89-1.1.17-1.7a6,6,0,0,0-1.63-1c-4.62-1.76-10.22-3.71-14.93-5.15C83.85,6.23,63.65,0,45.2,0h-.13C21.41,0,3.13,12.84,2.22,37.64"/><path class="cls-4" d="M.81,42.63c-1,.29-.85,1.28-.75,2,.41,3.09.86,6.17,1.37,9.24A149.4,149.4,0,0,0,6,73.68c1.31,4.25,2.64,8.49,4.15,12.67,1.19,3.32,2.66,6.54,4,9.79a99.43,99.43,0,0,0,9.66,18,59.65,59.65,0,0,0,12,13.36c6.77,5.32,14.34,8.16,23.14,7.38,6.15-.53,11.6-2.94,16.88-5.84a1.27,1.27,0,0,0,.59-1c-.28-2.55.85-4.67,2.28-6.58,3.63-4.83,7.4-9.55,11-14.36a124.28,124.28,0,0,0,13.79-22c2.14-4.54,3.72-9.18,3.63-13.14.06-7.65-2.7-12.74-8.2-16.43-.61-.41-1-.38-1.44.23-2.09,2.78-4.15,5.58-6.38,8.25-4.22,5.06-8.4,10.16-12.87,15-3.28,3.56-6.93,6.8-10.55,10A46.84,46.84,0,0,1,53,98.27c-6.43,2.41-12.47,1.6-18.23-1.92a33.25,33.25,0,0,1-9-8.41A94.06,94.06,0,0,1,15.5,71.24C12.26,64.46,9.32,57.55,6.25,50.7c-1-2.35-1.7-4.89-3.44-6.9-.46-.53-.91-1.23-1.63-1.23a1.29,1.29,0,0,0-.37.06"/></g></g></svg>